<?xml version="1.0" encoding="utf-8" standalone="no"?>
<!DOCTYPE svg PUBLIC "-//W3C//DTD SVG 1.1//EN"
  "http://www.w3.org/Graphics/SVG/1.1/DTD/svg11.dtd">
<svg xmlns:xlink="http://www.w3.org/1999/xlink" width="648pt" height="360pt" viewBox="0 0 648 360" xmlns="http://www.w3.org/2000/svg" version="1.1">
 <metadata>
  <rdf:RDF xmlns:dc="http://purl.org/dc/elements/1.1/" xmlns:cc="http://creativecommons.org/ns#" xmlns:rdf="http://www.w3.org/1999/02/22-rdf-syntax-ns#">
   <cc:Work>
    <dc:type rdf:resource="http://purl.org/dc/dcmitype/StillImage"/>
    <dc:date>2024-04-12T11:41:41.681802</dc:date>
    <dc:format>image/svg+xml</dc:format>
    <dc:creator>
     <cc:Agent>
      <dc:title>Matplotlib v3.7.2, https://matplotlib.org/</dc:title>
     </cc:Agent>
    </dc:creator>
   </cc:Work>
  </rdf:RDF>
 </metadata>
 <defs>
  <style type="text/css">*{stroke-linejoin: round; stroke-linecap: butt}</style>
 </defs>
 <g id="figure_1">
  <g id="patch_1">
   <path d="M 0 360 
L 648 360 
L 648 0 
L 0 0 
z
" style="fill: #ffffff"/>
  </g>
  <g id="axes_1">
   <g id="patch_2">
    <path d="M 44.66 318.04 
L 637.2 318.04 
L 637.2 10.8 
L 44.66 10.8 
z
" style="fill: #ffffff"/>
   </g>
   <g id="matplotlib.axis_1">
    <g id="xtick_1">
     <g id="line2d_1">
      <path d="M 71.593636 318.04 
L 71.593636 10.8 
" clip-path="url(#pa7e47c13c3)" style="fill: none; stroke: #b0b0b0; stroke-width: 0.8; stroke-linecap: square"/>
     </g>
     <g id="line2d_2">
      <defs>
       <path id="m020dcfdf3e" d="M 0 0 
L 0 3.5 
" style="stroke: #000000; stroke-width: 0.8"/>
      </defs>
      <g>
       <use xlink:href="#m020dcfdf3e" x="71.593636" y="318.04" style="stroke: #000000; stroke-width: 0.8"/>
      </g>
     </g>
     <g id="text_1">
      <!-- 0 -->
      <g transform="translate(68.412386 332.638438) scale(0.1 -0.1)">
       <defs>
        <path id="DejaVuSans-30" d="M 2034 4250 
Q 1547 4250 1301 3770 
Q 1056 3291 1056 2328 
Q 1056 1369 1301 889 
Q 1547 409 2034 409 
Q 2525 409 2770 889 
Q 3016 1369 3016 2328 
Q 3016 3291 2770 3770 
Q 2525 4250 2034 4250 
z
M 2034 4750 
Q 2819 4750 3233 4129 
Q 3647 3509 3647 2328 
Q 3647 1150 3233 529 
Q 2819 -91 2034 -91 
Q 1250 -91 836 529 
Q 422 1150 422 2328 
Q 422 3509 836 4129 
Q 1250 4750 2034 4750 
z
" transform="scale(0.015625)"/>
       </defs>
       <use xlink:href="#DejaVuSans-30"/>
      </g>
     </g>
    </g>
    <g id="xtick_2">
     <g id="line2d_3">
      <path d="M 118.434743 318.04 
L 118.434743 10.8 
" clip-path="url(#pa7e47c13c3)" style="fill: none; stroke: #b0b0b0; stroke-width: 0.8; stroke-linecap: square"/>
     </g>
     <g id="line2d_4">
      <g>
       <use xlink:href="#m020dcfdf3e" x="118.434743" y="318.04" style="stroke: #000000; stroke-width: 0.8"/>
      </g>
     </g>
     <g id="text_2">
      <!-- 2 -->
      <g transform="translate(115.253493 332.638438) scale(0.1 -0.1)">
       <defs>
        <path id="DejaVuSans-32" d="M 1228 531 
L 3431 531 
L 3431 0 
L 469 0 
L 469 531 
Q 828 903 1448 1529 
Q 2069 2156 2228 2338 
Q 2531 2678 2651 2914 
Q 2772 3150 2772 3378 
Q 2772 3750 2511 3984 
Q 2250 4219 1831 4219 
Q 1534 4219 1204 4116 
Q 875 4013 500 3803 
L 500 4441 
Q 881 4594 1212 4672 
Q 1544 4750 1819 4750 
Q 2544 4750 2975 4387 
Q 3406 4025 3406 3419 
Q 3406 3131 3298 2873 
Q 3191 2616 2906 2266 
Q 2828 2175 2409 1742 
Q 1991 1309 1228 531 
z
" transform="scale(0.015625)"/>
       </defs>
       <use xlink:href="#DejaVuSans-32"/>
      </g>
     </g>
    </g>
    <g id="xtick_3">
     <g id="line2d_5">
      <path d="M 165.27585 318.04 
L 165.27585 10.8 
" clip-path="url(#pa7e47c13c3)" style="fill: none; stroke: #b0b0b0; stroke-width: 0.8; stroke-linecap: square"/>
     </g>
     <g id="line2d_6">
      <g>
       <use xlink:href="#m020dcfdf3e" x="165.27585" y="318.04" style="stroke: #000000; stroke-width: 0.8"/>
      </g>
     </g>
     <g id="text_3">
      <!-- 4 -->
      <g transform="translate(162.0946 332.638438) scale(0.1 -0.1)">
       <defs>
        <path id="DejaVuSans-34" d="M 2419 4116 
L 825 1625 
L 2419 1625 
L 2419 4116 
z
M 2253 4666 
L 3047 4666 
L 3047 1625 
L 3713 1625 
L 3713 1100 
L 3047 1100 
L 3047 0 
L 2419 0 
L 2419 1100 
L 313 1100 
L 313 1709 
L 2253 4666 
z
" transform="scale(0.015625)"/>
       </defs>
       <use xlink:href="#DejaVuSans-34"/>
      </g>
     </g>
    </g>
    <g id="xtick_4">
     <g id="line2d_7">
      <path d="M 212.116957 318.04 
L 212.116957 10.8 
" clip-path="url(#pa7e47c13c3)" style="fill: none; stroke: #b0b0b0; stroke-width: 0.8; stroke-linecap: square"/>
     </g>
     <g id="line2d_8">
      <g>
       <use xlink:href="#m020dcfdf3e" x="212.116957" y="318.04" style="stroke: #000000; stroke-width: 0.8"/>
      </g>
     </g>
     <g id="text_4">
      <!-- 6 -->
      <g transform="translate(208.935707 332.638438) scale(0.1 -0.1)">
       <defs>
        <path id="DejaVuSans-36" d="M 2113 2584 
Q 1688 2584 1439 2293 
Q 1191 2003 1191 1497 
Q 1191 994 1439 701 
Q 1688 409 2113 409 
Q 2538 409 2786 701 
Q 3034 994 3034 1497 
Q 3034 2003 2786 2293 
Q 2538 2584 2113 2584 
z
M 3366 4563 
L 3366 3988 
Q 3128 4100 2886 4159 
Q 2644 4219 2406 4219 
Q 1781 4219 1451 3797 
Q 1122 3375 1075 2522 
Q 1259 2794 1537 2939 
Q 1816 3084 2150 3084 
Q 2853 3084 3261 2657 
Q 3669 2231 3669 1497 
Q 3669 778 3244 343 
Q 2819 -91 2113 -91 
Q 1303 -91 875 529 
Q 447 1150 447 2328 
Q 447 3434 972 4092 
Q 1497 4750 2381 4750 
Q 2619 4750 2861 4703 
Q 3103 4656 3366 4563 
z
" transform="scale(0.015625)"/>
       </defs>
       <use xlink:href="#DejaVuSans-36"/>
      </g>
     </g>
    </g>
    <g id="xtick_5">
     <g id="line2d_9">
      <path d="M 258.958063 318.04 
L 258.958063 10.8 
" clip-path="url(#pa7e47c13c3)" style="fill: none; stroke: #b0b0b0; stroke-width: 0.8; stroke-linecap: square"/>
     </g>
     <g id="line2d_10">
      <g>
       <use xlink:href="#m020dcfdf3e" x="258.958063" y="318.04" style="stroke: #000000; stroke-width: 0.8"/>
      </g>
     </g>
     <g id="text_5">
      <!-- 8 -->
      <g transform="translate(255.776813 332.638438) scale(0.1 -0.1)">
       <defs>
        <path id="DejaVuSans-38" d="M 2034 2216 
Q 1584 2216 1326 1975 
Q 1069 1734 1069 1313 
Q 1069 891 1326 650 
Q 1584 409 2034 409 
Q 2484 409 2743 651 
Q 3003 894 3003 1313 
Q 3003 1734 2745 1975 
Q 2488 2216 2034 2216 
z
M 1403 2484 
Q 997 2584 770 2862 
Q 544 3141 544 3541 
Q 544 4100 942 4425 
Q 1341 4750 2034 4750 
Q 2731 4750 3128 4425 
Q 3525 4100 3525 3541 
Q 3525 3141 3298 2862 
Q 3072 2584 2669 2484 
Q 3125 2378 3379 2068 
Q 3634 1759 3634 1313 
Q 3634 634 3220 271 
Q 2806 -91 2034 -91 
Q 1263 -91 848 271 
Q 434 634 434 1313 
Q 434 1759 690 2068 
Q 947 2378 1403 2484 
z
M 1172 3481 
Q 1172 3119 1398 2916 
Q 1625 2713 2034 2713 
Q 2441 2713 2670 2916 
Q 2900 3119 2900 3481 
Q 2900 3844 2670 4047 
Q 2441 4250 2034 4250 
Q 1625 4250 1398 4047 
Q 1172 3844 1172 3481 
z
" transform="scale(0.015625)"/>
       </defs>
       <use xlink:href="#DejaVuSans-38"/>
      </g>
     </g>
    </g>
    <g id="xtick_6">
     <g id="line2d_11">
      <path d="M 305.79917 318.04 
L 305.79917 10.8 
" clip-path="url(#pa7e47c13c3)" style="fill: none; stroke: #b0b0b0; stroke-width: 0.8; stroke-linecap: square"/>
     </g>
     <g id="line2d_12">
      <g>
       <use xlink:href="#m020dcfdf3e" x="305.79917" y="318.04" style="stroke: #000000; stroke-width: 0.8"/>
      </g>
     </g>
     <g id="text_6">
      <!-- 10 -->
      <g transform="translate(299.43667 332.638438) scale(0.1 -0.1)">
       <defs>
        <path id="DejaVuSans-31" d="M 794 531 
L 1825 531 
L 1825 4091 
L 703 3866 
L 703 4441 
L 1819 4666 
L 2450 4666 
L 2450 531 
L 3481 531 
L 3481 0 
L 794 0 
L 794 531 
z
" transform="scale(0.015625)"/>
       </defs>
       <use xlink:href="#DejaVuSans-31"/>
       <use xlink:href="#DejaVuSans-30" x="63.623047"/>
      </g>
     </g>
    </g>
    <g id="xtick_7">
     <g id="line2d_13">
      <path d="M 352.640277 318.04 
L 352.640277 10.8 
" clip-path="url(#pa7e47c13c3)" style="fill: none; stroke: #b0b0b0; stroke-width: 0.8; stroke-linecap: square"/>
     </g>
     <g id="line2d_14">
      <g>
       <use xlink:href="#m020dcfdf3e" x="352.640277" y="318.04" style="stroke: #000000; stroke-width: 0.8"/>
      </g>
     </g>
     <g id="text_7">
      <!-- 12 -->
      <g transform="translate(346.277777 332.638438) scale(0.1 -0.1)">
       <use xlink:href="#DejaVuSans-31"/>
       <use xlink:href="#DejaVuSans-32" x="63.623047"/>
      </g>
     </g>
    </g>
    <g id="xtick_8">
     <g id="line2d_15">
      <path d="M 399.481383 318.04 
L 399.481383 10.8 
" clip-path="url(#pa7e47c13c3)" style="fill: none; stroke: #b0b0b0; stroke-width: 0.8; stroke-linecap: square"/>
     </g>
     <g id="line2d_16">
      <g>
       <use xlink:href="#m020dcfdf3e" x="399.481383" y="318.04" style="stroke: #000000; stroke-width: 0.8"/>
      </g>
     </g>
     <g id="text_8">
      <!-- 14 -->
      <g transform="translate(393.118883 332.638438) scale(0.1 -0.1)">
       <use xlink:href="#DejaVuSans-31"/>
       <use xlink:href="#DejaVuSans-34" x="63.623047"/>
      </g>
     </g>
    </g>
    <g id="xtick_9">
     <g id="line2d_17">
      <path d="M 446.32249 318.04 
L 446.32249 10.8 
" clip-path="url(#pa7e47c13c3)" style="fill: none; stroke: #b0b0b0; stroke-width: 0.8; stroke-linecap: square"/>
     </g>
     <g id="line2d_18">
      <g>
       <use xlink:href="#m020dcfdf3e" x="446.32249" y="318.04" style="stroke: #000000; stroke-width: 0.8"/>
      </g>
     </g>
     <g id="text_9">
      <!-- 16 -->
      <g transform="translate(439.95999 332.638438) scale(0.1 -0.1)">
       <use xlink:href="#DejaVuSans-31"/>
       <use xlink:href="#DejaVuSans-36" x="63.623047"/>
      </g>
     </g>
    </g>
    <g id="xtick_10">
     <g id="line2d_19">
      <path d="M 493.163597 318.04 
L 493.163597 10.8 
" clip-path="url(#pa7e47c13c3)" style="fill: none; stroke: #b0b0b0; stroke-width: 0.8; stroke-linecap: square"/>
     </g>
     <g id="line2d_20">
      <g>
       <use xlink:href="#m020dcfdf3e" x="493.163597" y="318.04" style="stroke: #000000; stroke-width: 0.8"/>
      </g>
     </g>
     <g id="text_10">
      <!-- 18 -->
      <g transform="translate(486.801097 332.638438) scale(0.1 -0.1)">
       <use xlink:href="#DejaVuSans-31"/>
       <use xlink:href="#DejaVuSans-38" x="63.623047"/>
      </g>
     </g>
    </g>
    <g id="xtick_11">
     <g id="line2d_21">
      <path d="M 540.004704 318.04 
L 540.004704 10.8 
" clip-path="url(#pa7e47c13c3)" style="fill: none; stroke: #b0b0b0; stroke-width: 0.8; stroke-linecap: square"/>
     </g>
     <g id="line2d_22">
      <g>
       <use xlink:href="#m020dcfdf3e" x="540.004704" y="318.04" style="stroke: #000000; stroke-width: 0.8"/>
      </g>
     </g>
     <g id="text_11">
      <!-- 20 -->
      <g transform="translate(533.642204 332.638438) scale(0.1 -0.1)">
       <use xlink:href="#DejaVuSans-32"/>
       <use xlink:href="#DejaVuSans-30" x="63.623047"/>
      </g>
     </g>
    </g>
    <g id="xtick_12">
     <g id="line2d_23">
      <path d="M 586.84581 318.04 
L 586.84581 10.8 
" clip-path="url(#pa7e47c13c3)" style="fill: none; stroke: #b0b0b0; stroke-width: 0.8; stroke-linecap: square"/>
     </g>
     <g id="line2d_24">
      <g>
       <use xlink:href="#m020dcfdf3e" x="586.84581" y="318.04" style="stroke: #000000; stroke-width: 0.8"/>
      </g>
     </g>
     <g id="text_12">
      <!-- 22 -->
      <g transform="translate(580.48331 332.638438) scale(0.1 -0.1)">
       <use xlink:href="#DejaVuSans-32"/>
       <use xlink:href="#DejaVuSans-32" x="63.623047"/>
      </g>
     </g>
    </g>
    <g id="text_13">
     <!-- Lastfall -->
     <g transform="translate(322.912813 346.316563) scale(0.1 -0.1)">
      <defs>
       <path id="DejaVuSans-4c" d="M 628 4666 
L 1259 4666 
L 1259 531 
L 3531 531 
L 3531 0 
L 628 0 
L 628 4666 
z
" transform="scale(0.015625)"/>
       <path id="DejaVuSans-61" d="M 2194 1759 
Q 1497 1759 1228 1600 
Q 959 1441 959 1056 
Q 959 750 1161 570 
Q 1363 391 1709 391 
Q 2188 391 2477 730 
Q 2766 1069 2766 1631 
L 2766 1759 
L 2194 1759 
z
M 3341 1997 
L 3341 0 
L 2766 0 
L 2766 531 
Q 2569 213 2275 61 
Q 1981 -91 1556 -91 
Q 1019 -91 701 211 
Q 384 513 384 1019 
Q 384 1609 779 1909 
Q 1175 2209 1959 2209 
L 2766 2209 
L 2766 2266 
Q 2766 2663 2505 2880 
Q 2244 3097 1772 3097 
Q 1472 3097 1187 3025 
Q 903 2953 641 2809 
L 641 3341 
Q 956 3463 1253 3523 
Q 1550 3584 1831 3584 
Q 2591 3584 2966 3190 
Q 3341 2797 3341 1997 
z
" transform="scale(0.015625)"/>
       <path id="DejaVuSans-73" d="M 2834 3397 
L 2834 2853 
Q 2591 2978 2328 3040 
Q 2066 3103 1784 3103 
Q 1356 3103 1142 2972 
Q 928 2841 928 2578 
Q 928 2378 1081 2264 
Q 1234 2150 1697 2047 
L 1894 2003 
Q 2506 1872 2764 1633 
Q 3022 1394 3022 966 
Q 3022 478 2636 193 
Q 2250 -91 1575 -91 
Q 1294 -91 989 -36 
Q 684 19 347 128 
L 347 722 
Q 666 556 975 473 
Q 1284 391 1588 391 
Q 1994 391 2212 530 
Q 2431 669 2431 922 
Q 2431 1156 2273 1281 
Q 2116 1406 1581 1522 
L 1381 1569 
Q 847 1681 609 1914 
Q 372 2147 372 2553 
Q 372 3047 722 3315 
Q 1072 3584 1716 3584 
Q 2034 3584 2315 3537 
Q 2597 3491 2834 3397 
z
" transform="scale(0.015625)"/>
       <path id="DejaVuSans-74" d="M 1172 4494 
L 1172 3500 
L 2356 3500 
L 2356 3053 
L 1172 3053 
L 1172 1153 
Q 1172 725 1289 603 
Q 1406 481 1766 481 
L 2356 481 
L 2356 0 
L 1766 0 
Q 1100 0 847 248 
Q 594 497 594 1153 
L 594 3053 
L 172 3053 
L 172 3500 
L 594 3500 
L 594 4494 
L 1172 4494 
z
" transform="scale(0.015625)"/>
       <path id="DejaVuSans-66" d="M 2375 4863 
L 2375 4384 
L 1825 4384 
Q 1516 4384 1395 4259 
Q 1275 4134 1275 3809 
L 1275 3500 
L 2222 3500 
L 2222 3053 
L 1275 3053 
L 1275 0 
L 697 0 
L 697 3053 
L 147 3053 
L 147 3500 
L 697 3500 
L 697 3744 
Q 697 4328 969 4595 
Q 1241 4863 1831 4863 
L 2375 4863 
z
" transform="scale(0.015625)"/>
       <path id="DejaVuSans-6c" d="M 603 4863 
L 1178 4863 
L 1178 0 
L 603 0 
L 603 4863 
z
" transform="scale(0.015625)"/>
      </defs>
      <use xlink:href="#DejaVuSans-4c"/>
      <use xlink:href="#DejaVuSans-61" x="55.712891"/>
      <use xlink:href="#DejaVuSans-73" x="116.992188"/>
      <use xlink:href="#DejaVuSans-74" x="169.091797"/>
      <use xlink:href="#DejaVuSans-66" x="208.300781"/>
      <use xlink:href="#DejaVuSans-61" x="243.505859"/>
      <use xlink:href="#DejaVuSans-6c" x="304.785156"/>
      <use xlink:href="#DejaVuSans-6c" x="332.568359"/>
     </g>
    </g>
   </g>
   <g id="matplotlib.axis_2">
    <g id="ytick_1">
     <g id="line2d_25">
      <path d="M 44.66 304.074545 
L 637.2 304.074545 
" clip-path="url(#pa7e47c13c3)" style="fill: none; stroke: #b0b0b0; stroke-width: 0.8; stroke-linecap: square"/>
     </g>
     <g id="line2d_26">
      <defs>
       <path id="me4e1baeb48" d="M 0 0 
L -3.5 0 
" style="stroke: #000000; stroke-width: 0.8"/>
      </defs>
      <g>
       <use xlink:href="#me4e1baeb48" x="44.66" y="304.074545" style="stroke: #000000; stroke-width: 0.8"/>
      </g>
     </g>
     <g id="text_14">
      <!-- 0 -->
      <g transform="translate(31.2975 307.873764) scale(0.1 -0.1)">
       <use xlink:href="#DejaVuSans-30"/>
      </g>
     </g>
    </g>
    <g id="ytick_2">
     <g id="line2d_27">
      <path d="M 44.66 253.291074 
L 637.2 253.291074 
" clip-path="url(#pa7e47c13c3)" style="fill: none; stroke: #b0b0b0; stroke-width: 0.8; stroke-linecap: square"/>
     </g>
     <g id="line2d_28">
      <g>
       <use xlink:href="#me4e1baeb48" x="44.66" y="253.291074" style="stroke: #000000; stroke-width: 0.8"/>
      </g>
     </g>
     <g id="text_15">
      <!-- 2 -->
      <g transform="translate(31.2975 257.090293) scale(0.1 -0.1)">
       <use xlink:href="#DejaVuSans-32"/>
      </g>
     </g>
    </g>
    <g id="ytick_3">
     <g id="line2d_29">
      <path d="M 44.66 202.507603 
L 637.2 202.507603 
" clip-path="url(#pa7e47c13c3)" style="fill: none; stroke: #b0b0b0; stroke-width: 0.8; stroke-linecap: square"/>
     </g>
     <g id="line2d_30">
      <g>
       <use xlink:href="#me4e1baeb48" x="44.66" y="202.507603" style="stroke: #000000; stroke-width: 0.8"/>
      </g>
     </g>
     <g id="text_16">
      <!-- 4 -->
      <g transform="translate(31.2975 206.306822) scale(0.1 -0.1)">
       <use xlink:href="#DejaVuSans-34"/>
      </g>
     </g>
    </g>
    <g id="ytick_4">
     <g id="line2d_31">
      <path d="M 44.66 151.724132 
L 637.2 151.724132 
" clip-path="url(#pa7e47c13c3)" style="fill: none; stroke: #b0b0b0; stroke-width: 0.8; stroke-linecap: square"/>
     </g>
     <g id="line2d_32">
      <g>
       <use xlink:href="#me4e1baeb48" x="44.66" y="151.724132" style="stroke: #000000; stroke-width: 0.8"/>
      </g>
     </g>
     <g id="text_17">
      <!-- 6 -->
      <g transform="translate(31.2975 155.523351) scale(0.1 -0.1)">
       <use xlink:href="#DejaVuSans-36"/>
      </g>
     </g>
    </g>
    <g id="ytick_5">
     <g id="line2d_33">
      <path d="M 44.66 100.940661 
L 637.2 100.940661 
" clip-path="url(#pa7e47c13c3)" style="fill: none; stroke: #b0b0b0; stroke-width: 0.8; stroke-linecap: square"/>
     </g>
     <g id="line2d_34">
      <g>
       <use xlink:href="#me4e1baeb48" x="44.66" y="100.940661" style="stroke: #000000; stroke-width: 0.8"/>
      </g>
     </g>
     <g id="text_18">
      <!-- 8 -->
      <g transform="translate(31.2975 104.73988) scale(0.1 -0.1)">
       <use xlink:href="#DejaVuSans-38"/>
      </g>
     </g>
    </g>
    <g id="ytick_6">
     <g id="line2d_35">
      <path d="M 44.66 50.15719 
L 637.2 50.15719 
" clip-path="url(#pa7e47c13c3)" style="fill: none; stroke: #b0b0b0; stroke-width: 0.8; stroke-linecap: square"/>
     </g>
     <g id="line2d_36">
      <g>
       <use xlink:href="#me4e1baeb48" x="44.66" y="50.15719" style="stroke: #000000; stroke-width: 0.8"/>
      </g>
     </g>
     <g id="text_19">
      <!-- 10 -->
      <g transform="translate(24.935 53.956409) scale(0.1 -0.1)">
       <use xlink:href="#DejaVuSans-31"/>
       <use xlink:href="#DejaVuSans-30" x="63.623047"/>
      </g>
     </g>
    </g>
    <g id="text_20">
     <!-- Leistung [p.u.] -->
     <g transform="translate(18.855313 200.672344) rotate(-90) scale(0.1 -0.1)">
      <defs>
       <path id="DejaVuSans-65" d="M 3597 1894 
L 3597 1613 
L 953 1613 
Q 991 1019 1311 708 
Q 1631 397 2203 397 
Q 2534 397 2845 478 
Q 3156 559 3463 722 
L 3463 178 
Q 3153 47 2828 -22 
Q 2503 -91 2169 -91 
Q 1331 -91 842 396 
Q 353 884 353 1716 
Q 353 2575 817 3079 
Q 1281 3584 2069 3584 
Q 2775 3584 3186 3129 
Q 3597 2675 3597 1894 
z
M 3022 2063 
Q 3016 2534 2758 2815 
Q 2500 3097 2075 3097 
Q 1594 3097 1305 2825 
Q 1016 2553 972 2059 
L 3022 2063 
z
" transform="scale(0.015625)"/>
       <path id="DejaVuSans-69" d="M 603 3500 
L 1178 3500 
L 1178 0 
L 603 0 
L 603 3500 
z
M 603 4863 
L 1178 4863 
L 1178 4134 
L 603 4134 
L 603 4863 
z
" transform="scale(0.015625)"/>
       <path id="DejaVuSans-75" d="M 544 1381 
L 544 3500 
L 1119 3500 
L 1119 1403 
Q 1119 906 1312 657 
Q 1506 409 1894 409 
Q 2359 409 2629 706 
Q 2900 1003 2900 1516 
L 2900 3500 
L 3475 3500 
L 3475 0 
L 2900 0 
L 2900 538 
Q 2691 219 2414 64 
Q 2138 -91 1772 -91 
Q 1169 -91 856 284 
Q 544 659 544 1381 
z
M 1991 3584 
L 1991 3584 
z
" transform="scale(0.015625)"/>
       <path id="DejaVuSans-6e" d="M 3513 2113 
L 3513 0 
L 2938 0 
L 2938 2094 
Q 2938 2591 2744 2837 
Q 2550 3084 2163 3084 
Q 1697 3084 1428 2787 
Q 1159 2491 1159 1978 
L 1159 0 
L 581 0 
L 581 3500 
L 1159 3500 
L 1159 2956 
Q 1366 3272 1645 3428 
Q 1925 3584 2291 3584 
Q 2894 3584 3203 3211 
Q 3513 2838 3513 2113 
z
" transform="scale(0.015625)"/>
       <path id="DejaVuSans-67" d="M 2906 1791 
Q 2906 2416 2648 2759 
Q 2391 3103 1925 3103 
Q 1463 3103 1205 2759 
Q 947 2416 947 1791 
Q 947 1169 1205 825 
Q 1463 481 1925 481 
Q 2391 481 2648 825 
Q 2906 1169 2906 1791 
z
M 3481 434 
Q 3481 -459 3084 -895 
Q 2688 -1331 1869 -1331 
Q 1566 -1331 1297 -1286 
Q 1028 -1241 775 -1147 
L 775 -588 
Q 1028 -725 1275 -790 
Q 1522 -856 1778 -856 
Q 2344 -856 2625 -561 
Q 2906 -266 2906 331 
L 2906 616 
Q 2728 306 2450 153 
Q 2172 0 1784 0 
Q 1141 0 747 490 
Q 353 981 353 1791 
Q 353 2603 747 3093 
Q 1141 3584 1784 3584 
Q 2172 3584 2450 3431 
Q 2728 3278 2906 2969 
L 2906 3500 
L 3481 3500 
L 3481 434 
z
" transform="scale(0.015625)"/>
       <path id="DejaVuSans-20" transform="scale(0.015625)"/>
       <path id="DejaVuSans-5b" d="M 550 4863 
L 1875 4863 
L 1875 4416 
L 1125 4416 
L 1125 -397 
L 1875 -397 
L 1875 -844 
L 550 -844 
L 550 4863 
z
" transform="scale(0.015625)"/>
       <path id="DejaVuSans-70" d="M 1159 525 
L 1159 -1331 
L 581 -1331 
L 581 3500 
L 1159 3500 
L 1159 2969 
Q 1341 3281 1617 3432 
Q 1894 3584 2278 3584 
Q 2916 3584 3314 3078 
Q 3713 2572 3713 1747 
Q 3713 922 3314 415 
Q 2916 -91 2278 -91 
Q 1894 -91 1617 61 
Q 1341 213 1159 525 
z
M 3116 1747 
Q 3116 2381 2855 2742 
Q 2594 3103 2138 3103 
Q 1681 3103 1420 2742 
Q 1159 2381 1159 1747 
Q 1159 1113 1420 752 
Q 1681 391 2138 391 
Q 2594 391 2855 752 
Q 3116 1113 3116 1747 
z
" transform="scale(0.015625)"/>
       <path id="DejaVuSans-2e" d="M 684 794 
L 1344 794 
L 1344 0 
L 684 0 
L 684 794 
z
" transform="scale(0.015625)"/>
       <path id="DejaVuSans-5d" d="M 1947 4863 
L 1947 -844 
L 622 -844 
L 622 -397 
L 1369 -397 
L 1369 4416 
L 622 4416 
L 622 4863 
L 1947 4863 
z
" transform="scale(0.015625)"/>
      </defs>
      <use xlink:href="#DejaVuSans-4c"/>
      <use xlink:href="#DejaVuSans-65" x="53.962891"/>
      <use xlink:href="#DejaVuSans-69" x="115.486328"/>
      <use xlink:href="#DejaVuSans-73" x="143.269531"/>
      <use xlink:href="#DejaVuSans-74" x="195.369141"/>
      <use xlink:href="#DejaVuSans-75" x="234.578125"/>
      <use xlink:href="#DejaVuSans-6e" x="297.957031"/>
      <use xlink:href="#DejaVuSans-67" x="361.335938"/>
      <use xlink:href="#DejaVuSans-20" x="424.8125"/>
      <use xlink:href="#DejaVuSans-5b" x="456.599609"/>
      <use xlink:href="#DejaVuSans-70" x="495.613281"/>
      <use xlink:href="#DejaVuSans-2e" x="559.089844"/>
      <use xlink:href="#DejaVuSans-75" x="590.876953"/>
      <use xlink:href="#DejaVuSans-2e" x="654.255859"/>
      <use xlink:href="#DejaVuSans-5d" x="686.042969"/>
     </g>
    </g>
   </g>
   <g id="line2d_37">
    <path d="M 71.593636 139.028264 
L 95.01419 62.853058 
L 118.434743 24.765455 
L 141.855296 24.765455 
L 165.27585 88.244793 
L 188.696403 88.244793 
L 212.116957 88.244793 
L 235.53751 88.244793 
L 258.958063 139.028264 
L 282.378617 139.028264 
L 305.79917 139.028264 
L 329.219723 139.028264 
L 352.640277 139.028264 
L 376.06083 37.461322 
L 399.481383 24.765455 
L 422.901937 24.765455 
L 446.32249 62.853058 
L 469.743043 62.853058 
L 493.163597 62.853058 
L 516.58415 62.853058 
L 540.004704 62.853058 
L 563.425257 24.765455 
L 586.84581 24.765455 
L 610.266364 24.765455 
" clip-path="url(#pa7e47c13c3)" style="fill: none; stroke: #1f77b4; stroke-width: 1.5; stroke-linecap: square"/>
    <defs>
     <path id="m808cf091d0" d="M 0 3 
C 0.795609 3 1.55874 2.683901 2.12132 2.12132 
C 2.683901 1.55874 3 0.795609 3 0 
C 3 -0.795609 2.683901 -1.55874 2.12132 -2.12132 
C 1.55874 -2.683901 0.795609 -3 0 -3 
C -0.795609 -3 -1.55874 -2.683901 -2.12132 -2.12132 
C -2.683901 -1.55874 -3 -0.795609 -3 0 
C -3 0.795609 -2.683901 1.55874 -2.12132 2.12132 
C -1.55874 2.683901 -0.795609 3 0 3 
z
" style="stroke: #1f77b4"/>
    </defs>
    <g clip-path="url(#pa7e47c13c3)">
     <use xlink:href="#m808cf091d0" x="71.593636" y="139.028264" style="fill: #1f77b4; stroke: #1f77b4"/>
     <use xlink:href="#m808cf091d0" x="95.01419" y="62.853058" style="fill: #1f77b4; stroke: #1f77b4"/>
     <use xlink:href="#m808cf091d0" x="118.434743" y="24.765455" style="fill: #1f77b4; stroke: #1f77b4"/>
     <use xlink:href="#m808cf091d0" x="141.855296" y="24.765455" style="fill: #1f77b4; stroke: #1f77b4"/>
     <use xlink:href="#m808cf091d0" x="165.27585" y="88.244793" style="fill: #1f77b4; stroke: #1f77b4"/>
     <use xlink:href="#m808cf091d0" x="188.696403" y="88.244793" style="fill: #1f77b4; stroke: #1f77b4"/>
     <use xlink:href="#m808cf091d0" x="212.116957" y="88.244793" style="fill: #1f77b4; stroke: #1f77b4"/>
     <use xlink:href="#m808cf091d0" x="235.53751" y="88.244793" style="fill: #1f77b4; stroke: #1f77b4"/>
     <use xlink:href="#m808cf091d0" x="258.958063" y="139.028264" style="fill: #1f77b4; stroke: #1f77b4"/>
     <use xlink:href="#m808cf091d0" x="282.378617" y="139.028264" style="fill: #1f77b4; stroke: #1f77b4"/>
     <use xlink:href="#m808cf091d0" x="305.79917" y="139.028264" style="fill: #1f77b4; stroke: #1f77b4"/>
     <use xlink:href="#m808cf091d0" x="329.219723" y="139.028264" style="fill: #1f77b4; stroke: #1f77b4"/>
     <use xlink:href="#m808cf091d0" x="352.640277" y="139.028264" style="fill: #1f77b4; stroke: #1f77b4"/>
     <use xlink:href="#m808cf091d0" x="376.06083" y="37.461322" style="fill: #1f77b4; stroke: #1f77b4"/>
     <use xlink:href="#m808cf091d0" x="399.481383" y="24.765455" style="fill: #1f77b4; stroke: #1f77b4"/>
     <use xlink:href="#m808cf091d0" x="422.901937" y="24.765455" style="fill: #1f77b4; stroke: #1f77b4"/>
     <use xlink:href="#m808cf091d0" x="446.32249" y="62.853058" style="fill: #1f77b4; stroke: #1f77b4"/>
     <use xlink:href="#m808cf091d0" x="469.743043" y="62.853058" style="fill: #1f77b4; stroke: #1f77b4"/>
     <use xlink:href="#m808cf091d0" x="493.163597" y="62.853058" style="fill: #1f77b4; stroke: #1f77b4"/>
     <use xlink:href="#m808cf091d0" x="516.58415" y="62.853058" style="fill: #1f77b4; stroke: #1f77b4"/>
     <use xlink:href="#m808cf091d0" x="540.004704" y="62.853058" style="fill: #1f77b4; stroke: #1f77b4"/>
     <use xlink:href="#m808cf091d0" x="563.425257" y="24.765455" style="fill: #1f77b4; stroke: #1f77b4"/>
     <use xlink:href="#m808cf091d0" x="586.84581" y="24.765455" style="fill: #1f77b4; stroke: #1f77b4"/>
     <use xlink:href="#m808cf091d0" x="610.266364" y="24.765455" style="fill: #1f77b4; stroke: #1f77b4"/>
    </g>
   </g>
   <g id="line2d_38">
    <path d="M 71.593636 304.074545 
L 95.01419 304.074545 
L 118.434743 265.986942 
L 141.855296 265.986942 
L 165.27585 304.074545 
L 188.696403 304.074545 
L 212.116957 304.074545 
L 235.53751 304.074545 
L 258.958063 304.074545 
L 282.378617 304.074545 
L 305.79917 304.074545 
L 329.219723 304.074545 
L 352.640277 304.074545 
L 376.06083 304.074545 
L 399.481383 265.986942 
L 422.901937 265.986942 
L 446.32249 304.074545 
L 469.743043 304.074545 
L 493.163597 304.074545 
L 516.58415 304.074545 
L 540.004704 304.074545 
L 563.425257 291.378678 
L 586.84581 215.203471 
L 610.266364 215.203471 
" clip-path="url(#pa7e47c13c3)" style="fill: none; stroke: #ff7f0e; stroke-width: 1.5; stroke-linecap: square"/>
    <defs>
     <path id="meb20e15260" d="M -3 3 
L 3 -3 
M -3 -3 
L 3 3 
" style="stroke: #ff7f0e"/>
    </defs>
    <g clip-path="url(#pa7e47c13c3)">
     <use xlink:href="#meb20e15260" x="71.593636" y="304.074545" style="fill: #ff7f0e; stroke: #ff7f0e"/>
     <use xlink:href="#meb20e15260" x="95.01419" y="304.074545" style="fill: #ff7f0e; stroke: #ff7f0e"/>
     <use xlink:href="#meb20e15260" x="118.434743" y="265.986942" style="fill: #ff7f0e; stroke: #ff7f0e"/>
     <use xlink:href="#meb20e15260" x="141.855296" y="265.986942" style="fill: #ff7f0e; stroke: #ff7f0e"/>
     <use xlink:href="#meb20e15260" x="165.27585" y="304.074545" style="fill: #ff7f0e; stroke: #ff7f0e"/>
     <use xlink:href="#meb20e15260" x="188.696403" y="304.074545" style="fill: #ff7f0e; stroke: #ff7f0e"/>
     <use xlink:href="#meb20e15260" x="212.116957" y="304.074545" style="fill: #ff7f0e; stroke: #ff7f0e"/>
     <use xlink:href="#meb20e15260" x="235.53751" y="304.074545" style="fill: #ff7f0e; stroke: #ff7f0e"/>
     <use xlink:href="#meb20e15260" x="258.958063" y="304.074545" style="fill: #ff7f0e; stroke: #ff7f0e"/>
     <use xlink:href="#meb20e15260" x="282.378617" y="304.074545" style="fill: #ff7f0e; stroke: #ff7f0e"/>
     <use xlink:href="#meb20e15260" x="305.79917" y="304.074545" style="fill: #ff7f0e; stroke: #ff7f0e"/>
     <use xlink:href="#meb20e15260" x="329.219723" y="304.074545" style="fill: #ff7f0e; stroke: #ff7f0e"/>
     <use xlink:href="#meb20e15260" x="352.640277" y="304.074545" style="fill: #ff7f0e; stroke: #ff7f0e"/>
     <use xlink:href="#meb20e15260" x="376.06083" y="304.074545" style="fill: #ff7f0e; stroke: #ff7f0e"/>
     <use xlink:href="#meb20e15260" x="399.481383" y="265.986942" style="fill: #ff7f0e; stroke: #ff7f0e"/>
     <use xlink:href="#meb20e15260" x="422.901937" y="265.986942" style="fill: #ff7f0e; stroke: #ff7f0e"/>
     <use xlink:href="#meb20e15260" x="446.32249" y="304.074545" style="fill: #ff7f0e; stroke: #ff7f0e"/>
     <use xlink:href="#meb20e15260" x="469.743043" y="304.074545" style="fill: #ff7f0e; stroke: #ff7f0e"/>
     <use xlink:href="#meb20e15260" x="493.163597" y="304.074545" style="fill: #ff7f0e; stroke: #ff7f0e"/>
     <use xlink:href="#meb20e15260" x="516.58415" y="304.074545" style="fill: #ff7f0e; stroke: #ff7f0e"/>
     <use xlink:href="#meb20e15260" x="540.004704" y="304.074545" style="fill: #ff7f0e; stroke: #ff7f0e"/>
     <use xlink:href="#meb20e15260" x="563.425257" y="291.378678" style="fill: #ff7f0e; stroke: #ff7f0e"/>
     <use xlink:href="#meb20e15260" x="586.84581" y="215.203471" style="fill: #ff7f0e; stroke: #ff7f0e"/>
     <use xlink:href="#meb20e15260" x="610.266364" y="215.203471" style="fill: #ff7f0e; stroke: #ff7f0e"/>
    </g>
   </g>
   <g id="line2d_39">
    <path d="M 71.593636 291.378678 
L 95.01419 291.378678 
L 118.434743 291.378678 
L 141.855296 291.378678 
L 165.27585 291.378678 
L 188.696403 291.378678 
L 212.116957 291.378678 
L 235.53751 291.378678 
L 258.958063 291.378678 
L 282.378617 291.378678 
L 305.79917 291.378678 
L 329.219723 291.378678 
L 352.640277 291.378678 
L 376.06083 291.378678 
L 399.481383 291.378678 
L 422.901937 291.378678 
L 446.32249 291.378678 
L 469.743043 291.378678 
L 493.163597 291.378678 
L 516.58415 291.378678 
L 540.004704 291.378678 
L 563.425257 291.378678 
L 586.84581 291.378678 
L 610.266364 291.378678 
" clip-path="url(#pa7e47c13c3)" style="fill: none; stroke: #2ca02c; stroke-width: 1.5; stroke-linecap: square"/>
    <defs>
     <path id="m0882bc6cba" d="M -3 3 
L 3 3 
L 3 -3 
L -3 -3 
z
" style="stroke: #2ca02c; stroke-linejoin: miter"/>
    </defs>
    <g clip-path="url(#pa7e47c13c3)">
     <use xlink:href="#m0882bc6cba" x="71.593636" y="291.378678" style="fill: #2ca02c; stroke: #2ca02c; stroke-linejoin: miter"/>
     <use xlink:href="#m0882bc6cba" x="95.01419" y="291.378678" style="fill: #2ca02c; stroke: #2ca02c; stroke-linejoin: miter"/>
     <use xlink:href="#m0882bc6cba" x="118.434743" y="291.378678" style="fill: #2ca02c; stroke: #2ca02c; stroke-linejoin: miter"/>
     <use xlink:href="#m0882bc6cba" x="141.855296" y="291.378678" style="fill: #2ca02c; stroke: #2ca02c; stroke-linejoin: miter"/>
     <use xlink:href="#m0882bc6cba" x="165.27585" y="291.378678" style="fill: #2ca02c; stroke: #2ca02c; stroke-linejoin: miter"/>
     <use xlink:href="#m0882bc6cba" x="188.696403" y="291.378678" style="fill: #2ca02c; stroke: #2ca02c; stroke-linejoin: miter"/>
     <use xlink:href="#m0882bc6cba" x="212.116957" y="291.378678" style="fill: #2ca02c; stroke: #2ca02c; stroke-linejoin: miter"/>
     <use xlink:href="#m0882bc6cba" x="235.53751" y="291.378678" style="fill: #2ca02c; stroke: #2ca02c; stroke-linejoin: miter"/>
     <use xlink:href="#m0882bc6cba" x="258.958063" y="291.378678" style="fill: #2ca02c; stroke: #2ca02c; stroke-linejoin: miter"/>
     <use xlink:href="#m0882bc6cba" x="282.378617" y="291.378678" style="fill: #2ca02c; stroke: #2ca02c; stroke-linejoin: miter"/>
     <use xlink:href="#m0882bc6cba" x="305.79917" y="291.378678" style="fill: #2ca02c; stroke: #2ca02c; stroke-linejoin: miter"/>
     <use xlink:href="#m0882bc6cba" x="329.219723" y="291.378678" style="fill: #2ca02c; stroke: #2ca02c; stroke-linejoin: miter"/>
     <use xlink:href="#m0882bc6cba" x="352.640277" y="291.378678" style="fill: #2ca02c; stroke: #2ca02c; stroke-linejoin: miter"/>
     <use xlink:href="#m0882bc6cba" x="376.06083" y="291.378678" style="fill: #2ca02c; stroke: #2ca02c; stroke-linejoin: miter"/>
     <use xlink:href="#m0882bc6cba" x="399.481383" y="291.378678" style="fill: #2ca02c; stroke: #2ca02c; stroke-linejoin: miter"/>
     <use xlink:href="#m0882bc6cba" x="422.901937" y="291.378678" style="fill: #2ca02c; stroke: #2ca02c; stroke-linejoin: miter"/>
     <use xlink:href="#m0882bc6cba" x="446.32249" y="291.378678" style="fill: #2ca02c; stroke: #2ca02c; stroke-linejoin: miter"/>
     <use xlink:href="#m0882bc6cba" x="469.743043" y="291.378678" style="fill: #2ca02c; stroke: #2ca02c; stroke-linejoin: miter"/>
     <use xlink:href="#m0882bc6cba" x="493.163597" y="291.378678" style="fill: #2ca02c; stroke: #2ca02c; stroke-linejoin: miter"/>
     <use xlink:href="#m0882bc6cba" x="516.58415" y="291.378678" style="fill: #2ca02c; stroke: #2ca02c; stroke-linejoin: miter"/>
     <use xlink:href="#m0882bc6cba" x="540.004704" y="291.378678" style="fill: #2ca02c; stroke: #2ca02c; stroke-linejoin: miter"/>
     <use xlink:href="#m0882bc6cba" x="563.425257" y="291.378678" style="fill: #2ca02c; stroke: #2ca02c; stroke-linejoin: miter"/>
     <use xlink:href="#m0882bc6cba" x="586.84581" y="291.378678" style="fill: #2ca02c; stroke: #2ca02c; stroke-linejoin: miter"/>
     <use xlink:href="#m0882bc6cba" x="610.266364" y="291.378678" style="fill: #2ca02c; stroke: #2ca02c; stroke-linejoin: miter"/>
    </g>
   </g>
   <g id="line2d_40">
    <path d="M 71.593636 304.074545 
L 95.01419 304.074545 
L 118.434743 304.074545 
L 141.855296 304.074545 
L 165.27585 304.074545 
L 188.696403 304.074545 
L 212.116957 304.074545 
L 235.53751 304.074545 
L 258.958063 304.074545 
L 282.378617 304.074545 
L 305.79917 304.074545 
L 329.219723 304.074545 
L 352.640277 304.074545 
L 376.06083 304.074545 
L 399.481383 304.074545 
L 422.901937 304.074545 
L 446.32249 304.074545 
L 469.743043 304.074545 
L 493.163597 304.074545 
L 516.58415 304.074545 
L 540.004704 304.074545 
L 563.425257 304.074545 
L 586.84581 304.074545 
L 610.266364 304.074545 
" clip-path="url(#pa7e47c13c3)" style="fill: none; stroke: #d62728; stroke-width: 1.5; stroke-linecap: square"/>
    <defs>
     <path id="m8947d0d122" d="M 0 -3 
L -0.673542 -0.927051 
L -2.85317 -0.927051 
L -1.089814 0.354102 
L -1.763356 2.427051 
L -0 1.145898 
L 1.763356 2.427051 
L 1.089814 0.354102 
L 2.85317 -0.927051 
L 0.673542 -0.927051 
z
" style="stroke: #d62728; stroke-linejoin: bevel"/>
    </defs>
    <g clip-path="url(#pa7e47c13c3)">
     <use xlink:href="#m8947d0d122" x="71.593636" y="304.074545" style="fill: #d62728; stroke: #d62728; stroke-linejoin: bevel"/>
     <use xlink:href="#m8947d0d122" x="95.01419" y="304.074545" style="fill: #d62728; stroke: #d62728; stroke-linejoin: bevel"/>
     <use xlink:href="#m8947d0d122" x="118.434743" y="304.074545" style="fill: #d62728; stroke: #d62728; stroke-linejoin: bevel"/>
     <use xlink:href="#m8947d0d122" x="141.855296" y="304.074545" style="fill: #d62728; stroke: #d62728; stroke-linejoin: bevel"/>
     <use xlink:href="#m8947d0d122" x="165.27585" y="304.074545" style="fill: #d62728; stroke: #d62728; stroke-linejoin: bevel"/>
     <use xlink:href="#m8947d0d122" x="188.696403" y="304.074545" style="fill: #d62728; stroke: #d62728; stroke-linejoin: bevel"/>
     <use xlink:href="#m8947d0d122" x="212.116957" y="304.074545" style="fill: #d62728; stroke: #d62728; stroke-linejoin: bevel"/>
     <use xlink:href="#m8947d0d122" x="235.53751" y="304.074545" style="fill: #d62728; stroke: #d62728; stroke-linejoin: bevel"/>
     <use xlink:href="#m8947d0d122" x="258.958063" y="304.074545" style="fill: #d62728; stroke: #d62728; stroke-linejoin: bevel"/>
     <use xlink:href="#m8947d0d122" x="282.378617" y="304.074545" style="fill: #d62728; stroke: #d62728; stroke-linejoin: bevel"/>
     <use xlink:href="#m8947d0d122" x="305.79917" y="304.074545" style="fill: #d62728; stroke: #d62728; stroke-linejoin: bevel"/>
     <use xlink:href="#m8947d0d122" x="329.219723" y="304.074545" style="fill: #d62728; stroke: #d62728; stroke-linejoin: bevel"/>
     <use xlink:href="#m8947d0d122" x="352.640277" y="304.074545" style="fill: #d62728; stroke: #d62728; stroke-linejoin: bevel"/>
     <use xlink:href="#m8947d0d122" x="376.06083" y="304.074545" style="fill: #d62728; stroke: #d62728; stroke-linejoin: bevel"/>
     <use xlink:href="#m8947d0d122" x="399.481383" y="304.074545" style="fill: #d62728; stroke: #d62728; stroke-linejoin: bevel"/>
     <use xlink:href="#m8947d0d122" x="422.901937" y="304.074545" style="fill: #d62728; stroke: #d62728; stroke-linejoin: bevel"/>
     <use xlink:href="#m8947d0d122" x="446.32249" y="304.074545" style="fill: #d62728; stroke: #d62728; stroke-linejoin: bevel"/>
     <use xlink:href="#m8947d0d122" x="469.743043" y="304.074545" style="fill: #d62728; stroke: #d62728; stroke-linejoin: bevel"/>
     <use xlink:href="#m8947d0d122" x="493.163597" y="304.074545" style="fill: #d62728; stroke: #d62728; stroke-linejoin: bevel"/>
     <use xlink:href="#m8947d0d122" x="516.58415" y="304.074545" style="fill: #d62728; stroke: #d62728; stroke-linejoin: bevel"/>
     <use xlink:href="#m8947d0d122" x="540.004704" y="304.074545" style="fill: #d62728; stroke: #d62728; stroke-linejoin: bevel"/>
     <use xlink:href="#m8947d0d122" x="563.425257" y="304.074545" style="fill: #d62728; stroke: #d62728; stroke-linejoin: bevel"/>
     <use xlink:href="#m8947d0d122" x="586.84581" y="304.074545" style="fill: #d62728; stroke: #d62728; stroke-linejoin: bevel"/>
     <use xlink:href="#m8947d0d122" x="610.266364" y="304.074545" style="fill: #d62728; stroke: #d62728; stroke-linejoin: bevel"/>
    </g>
   </g>
   <g id="patch_3">
    <path d="M 44.66 318.04 
L 44.66 10.8 
" style="fill: none; stroke: #000000; stroke-width: 0.8; stroke-linejoin: miter; stroke-linecap: square"/>
   </g>
   <g id="patch_4">
    <path d="M 637.2 318.04 
L 637.2 10.8 
" style="fill: none; stroke: #000000; stroke-width: 0.8; stroke-linejoin: miter; stroke-linecap: square"/>
   </g>
   <g id="patch_5">
    <path d="M 44.66 318.04 
L 637.2 318.04 
" style="fill: none; stroke: #000000; stroke-width: 0.8; stroke-linejoin: miter; stroke-linecap: square"/>
   </g>
   <g id="patch_6">
    <path d="M 44.66 10.8 
L 637.2 10.8 
" style="fill: none; stroke: #000000; stroke-width: 0.8; stroke-linejoin: miter; stroke-linecap: square"/>
   </g>
   <g id="legend_1">
    <g id="patch_7">
     <path d="M 573.059375 78.625 
L 630.2 78.625 
Q 632.2 78.625 632.2 76.625 
L 632.2 17.8 
Q 632.2 15.8 630.2 15.8 
L 573.059375 15.8 
Q 571.059375 15.8 571.059375 17.8 
L 571.059375 76.625 
Q 571.059375 78.625 573.059375 78.625 
z
" style="fill: #ffffff; opacity: 0.8; stroke: #cccccc; stroke-linejoin: miter"/>
    </g>
    <g id="line2d_41">
     <path d="M 575.059375 23.898438 
L 585.059375 23.898438 
L 595.059375 23.898438 
" style="fill: none; stroke: #1f77b4; stroke-width: 1.5; stroke-linecap: square"/>
     <g>
      <use xlink:href="#m808cf091d0" x="585.059375" y="23.898438" style="fill: #1f77b4; stroke: #1f77b4"/>
     </g>
    </g>
    <g id="text_21">
     <!-- PG_1 -->
     <g transform="translate(603.059375 27.398438) scale(0.1 -0.1)">
      <defs>
       <path id="DejaVuSans-50" d="M 1259 4147 
L 1259 2394 
L 2053 2394 
Q 2494 2394 2734 2622 
Q 2975 2850 2975 3272 
Q 2975 3691 2734 3919 
Q 2494 4147 2053 4147 
L 1259 4147 
z
M 628 4666 
L 2053 4666 
Q 2838 4666 3239 4311 
Q 3641 3956 3641 3272 
Q 3641 2581 3239 2228 
Q 2838 1875 2053 1875 
L 1259 1875 
L 1259 0 
L 628 0 
L 628 4666 
z
" transform="scale(0.015625)"/>
       <path id="DejaVuSans-47" d="M 3809 666 
L 3809 1919 
L 2778 1919 
L 2778 2438 
L 4434 2438 
L 4434 434 
Q 4069 175 3628 42 
Q 3188 -91 2688 -91 
Q 1594 -91 976 548 
Q 359 1188 359 2328 
Q 359 3472 976 4111 
Q 1594 4750 2688 4750 
Q 3144 4750 3555 4637 
Q 3966 4525 4313 4306 
L 4313 3634 
Q 3963 3931 3569 4081 
Q 3175 4231 2741 4231 
Q 1884 4231 1454 3753 
Q 1025 3275 1025 2328 
Q 1025 1384 1454 906 
Q 1884 428 2741 428 
Q 3075 428 3337 486 
Q 3600 544 3809 666 
z
" transform="scale(0.015625)"/>
       <path id="DejaVuSans-5f" d="M 3263 -1063 
L 3263 -1509 
L -63 -1509 
L -63 -1063 
L 3263 -1063 
z
" transform="scale(0.015625)"/>
      </defs>
      <use xlink:href="#DejaVuSans-50"/>
      <use xlink:href="#DejaVuSans-47" x="60.302734"/>
      <use xlink:href="#DejaVuSans-5f" x="137.792969"/>
      <use xlink:href="#DejaVuSans-31" x="187.792969"/>
     </g>
    </g>
    <g id="line2d_42">
     <path d="M 575.059375 38.854688 
L 585.059375 38.854688 
L 595.059375 38.854688 
" style="fill: none; stroke: #ff7f0e; stroke-width: 1.5; stroke-linecap: square"/>
     <g>
      <use xlink:href="#meb20e15260" x="585.059375" y="38.854688" style="fill: #ff7f0e; stroke: #ff7f0e"/>
     </g>
    </g>
    <g id="text_22">
     <!-- PG_2 -->
     <g transform="translate(603.059375 42.354688) scale(0.1 -0.1)">
      <use xlink:href="#DejaVuSans-50"/>
      <use xlink:href="#DejaVuSans-47" x="60.302734"/>
      <use xlink:href="#DejaVuSans-5f" x="137.792969"/>
      <use xlink:href="#DejaVuSans-32" x="187.792969"/>
     </g>
    </g>
    <g id="line2d_43">
     <path d="M 575.059375 53.810938 
L 585.059375 53.810938 
L 595.059375 53.810938 
" style="fill: none; stroke: #2ca02c; stroke-width: 1.5; stroke-linecap: square"/>
     <g>
      <use xlink:href="#m0882bc6cba" x="585.059375" y="53.810938" style="fill: #2ca02c; stroke: #2ca02c; stroke-linejoin: miter"/>
     </g>
    </g>
    <g id="text_23">
     <!-- PG_3 -->
     <g transform="translate(603.059375 57.310938) scale(0.1 -0.1)">
      <defs>
       <path id="DejaVuSans-33" d="M 2597 2516 
Q 3050 2419 3304 2112 
Q 3559 1806 3559 1356 
Q 3559 666 3084 287 
Q 2609 -91 1734 -91 
Q 1441 -91 1130 -33 
Q 819 25 488 141 
L 488 750 
Q 750 597 1062 519 
Q 1375 441 1716 441 
Q 2309 441 2620 675 
Q 2931 909 2931 1356 
Q 2931 1769 2642 2001 
Q 2353 2234 1838 2234 
L 1294 2234 
L 1294 2753 
L 1863 2753 
Q 2328 2753 2575 2939 
Q 2822 3125 2822 3475 
Q 2822 3834 2567 4026 
Q 2313 4219 1838 4219 
Q 1578 4219 1281 4162 
Q 984 4106 628 3988 
L 628 4550 
Q 988 4650 1302 4700 
Q 1616 4750 1894 4750 
Q 2613 4750 3031 4423 
Q 3450 4097 3450 3541 
Q 3450 3153 3228 2886 
Q 3006 2619 2597 2516 
z
" transform="scale(0.015625)"/>
      </defs>
      <use xlink:href="#DejaVuSans-50"/>
      <use xlink:href="#DejaVuSans-47" x="60.302734"/>
      <use xlink:href="#DejaVuSans-5f" x="137.792969"/>
      <use xlink:href="#DejaVuSans-33" x="187.792969"/>
     </g>
    </g>
    <g id="line2d_44">
     <path d="M 575.059375 68.767187 
L 585.059375 68.767187 
L 595.059375 68.767187 
" style="fill: none; stroke: #d62728; stroke-width: 1.5; stroke-linecap: square"/>
     <g>
      <use xlink:href="#m8947d0d122" x="585.059375" y="68.767187" style="fill: #d62728; stroke: #d62728; stroke-linejoin: bevel"/>
     </g>
    </g>
    <g id="text_24">
     <!-- PG_4 -->
     <g transform="translate(603.059375 72.267187) scale(0.1 -0.1)">
      <use xlink:href="#DejaVuSans-50"/>
      <use xlink:href="#DejaVuSans-47" x="60.302734"/>
      <use xlink:href="#DejaVuSans-5f" x="137.792969"/>
      <use xlink:href="#DejaVuSans-34" x="187.792969"/>
     </g>
    </g>
   </g>
  </g>
 </g>
 <defs>
  <clipPath id="pa7e47c13c3">
   <rect x="44.66" y="10.8" width="592.54" height="307.24"/>
  </clipPath>
 </defs>
</svg>
